<svg xmlns="http://www.w3.org/2000/svg" viewBox="0 0 64 64" width="64" height="64"><path fill="#acb7d0" d="M43,63H21c-3.314,0-6-2.686-6-6V7c0-3.314,2.686-6,6-6h22c3.314,0,6,2.686,6,6v50 C49,60.314,46.314,63,43,63z"/><path fill="#acb7d0" d="M43,63H21c-3.314,0-6-2.686-6-6v-4h34v4C49,60.314,46.314,63,43,63z"/><path fill="#c5e4fa" d="M15 9H49V53H15z"/><path fill="#e3f2ff" d="M31 53L49.375 34.625 49 20 16 53zM15 50L49 16 49 10 15 44zM15 40L46 9 41 9 15 35z"/><path fill="#fff8f8" d="M31.502 14.412L32.74 16.676 35.004 17.915 32.74 19.153 31.502 21.417 30.264 19.153 28 17.915 30.264 16.676zM33.581 39.02L34.436 40.583 36 41.438 34.436 42.294 33.581 43.857 32.726 42.294 31.162 41.438 32.726 40.583zM37.352 30.352L37.935 31.417 39 32 37.935 32.583 37.352 33.648 36.769 32.583 35.704 32 36.769 31.417z"/><path fill="#faefde" d="M22 43L9 30 22 17 25 20 15 30 25 40zM42 43L55 30 42 17 39 20 49 30 39 40z"/><path fill="#8d6c9f" d="M19 46c-.552 0-1 .447-1 1v2c0 .553.448 1 1 1s1-.447 1-1v-2C20 46.447 19.552 46 19 46zM24 46c-.552 0-1 .447-1 1v2c0 .553.448 1 1 1s1-.447 1-1v-2C25 46.447 24.552 46 24 46zM29 46c-.552 0-1 .447-1 1v2c0 .553.448 1 1 1s1-.447 1-1v-2C30 46.447 29.552 46 29 46zM45 50c.552 0 1-.447 1-1v-2c0-.553-.448-1-1-1s-1 .447-1 1v2C44 49.553 44.448 50 45 50zM35 46c-.552 0-1 .447-1 1v2c0 .553.448 1 1 1s1-.447 1-1v-2C36 46.447 35.552 46 35 46zM40 46c-.552 0-1 .447-1 1v2c0 .553.448 1 1 1s1-.447 1-1v-2C41 46.447 40.552 46 40 46zM32 56A2 2 0 1 0 32 60 2 2 0 1 0 32 56zM33 6h4c.552 0 1-.447 1-1s-.448-1-1-1h-4c-.552 0-1 .447-1 1S32.448 6 33 6zM27 6h2c.552 0 1-.447 1-1s-.448-1-1-1h-2c-.552 0-1 .447-1 1S26.448 6 27 6z"/><path fill="#8d6c9f" d="M55.71,29.29L50,23.58V7c0-3.86-3.14-7-7-7H21c-3.86,0-7,3.14-7,7v16.58l-5.71,5.71 c-0.39,0.39-0.39,1.03,0,1.42L14,36.42V57c0,3.86,3.14,7,7,7h22c3.86,0,7-3.14,7-7V36.42l5.71-5.71 C56.1,30.32,56.1,29.68,55.71,29.29z M21,2h22c2.76,0,5,2.24,5,5v1H16V7C16,4.24,18.24,2,21,2z M10.41,30L14,26.41l2-2l6-6 L23.59,20L16,27.58l-1.71,1.71C14.1,29.48,14,29.74,14,30s0.1,0.52,0.29,0.71L16,32.42L23.59,40L22,41.59l-6-6l-2-2L10.41,30z M43,62H21c-2.76,0-5-2.24-5-5v-3h32v3C48,59.76,45.76,62,43,62z M48,52H16V38.42l5.29,5.29C21.49,43.9,21.74,44,22,44 s0.51-0.1,0.71-0.29l3-3c0.39-0.39,0.39-1.03,0-1.42L16.41,30l9.3-9.29c0.39-0.39,0.39-1.03,0-1.42l-3-3 c-0.39-0.39-1.03-0.39-1.42,0L16,21.58V10h32v11.58l-5.29-5.29c-0.39-0.39-1.03-0.39-1.42,0l-3,3c-0.39,0.39-0.39,1.03,0,1.42 l9.3,9.29l-9.3,9.29c-0.39,0.39-0.39,1.03,0,1.42l3,3C41.49,43.9,41.74,44,42,44s0.51-0.1,0.71-0.29L48,38.42V52z M50,33.59l-2,2 l-6,6L40.41,40L48,32.42l1.71-1.71C49.9,30.52,50,30.26,50,30s-0.1-0.52-0.29-0.71L48,27.58L40.41,20L42,18.41l6,6l2,2L53.59,30 L50,33.59z"/></svg>